<?xml version="1.0" encoding="UTF-8" standalone="no"?>
<!-- Created with Inkscape (http://www.inkscape.org/) -->

<svg
   width="32"
   height="32"
   viewBox="0 0 8.4666665 8.4666666"
   version="1.1"
   id="svg1"
   inkscape:version="1.3 (0e150ed6c4, 2023-07-21)"
   sodipodi:docname="showFalse.svg"
   xmlns:inkscape="http://www.inkscape.org/namespaces/inkscape"
   xmlns:sodipodi="http://sodipodi.sourceforge.net/DTD/sodipodi-0.dtd"
   xmlns="http://www.w3.org/2000/svg"
   xmlns:svg="http://www.w3.org/2000/svg">
  <sodipodi:namedview
     id="namedview1"
     pagecolor="#000000"
     bordercolor="#000000"
     borderopacity="0.25"
     inkscape:showpageshadow="2"
     inkscape:pageopacity="0.0"
     inkscape:pagecheckerboard="0"
     inkscape:deskcolor="#171717"
     inkscape:document-units="mm"
     showgrid="true"
     inkscape:lockguides="true"
     inkscape:zoom="16"
     inkscape:cx="12.8125"
     inkscape:cy="19.78125"
     inkscape:window-width="1920"
     inkscape:window-height="1177"
     inkscape:window-x="1912"
     inkscape:window-y="-8"
     inkscape:window-maximized="1"
     inkscape:current-layer="layer1">
    <inkscape:grid
       id="grid1"
       units="px"
       originx="0"
       originy="0"
       spacingx="2.1166666"
       spacingy="2.1166666"
       empcolor="#0099e5"
       empopacity="0.30196078"
       color="#0099e5"
       opacity="0.14901961"
       empspacing="5"
       dotted="false"
       gridanglex="30"
       gridanglez="30"
       visible="true" />
  </sodipodi:namedview>
  <defs
     id="defs1">
    <linearGradient
       id="swatch1"
       inkscape:swatch="solid">
      <stop
         style="stop-color:#ffffff;stop-opacity:1;"
         offset="0"
         id="stop1" />
    </linearGradient>
    <inkscape:path-effect
       effect="fillet_chamfer"
       id="path-effect1"
       is_visible="true"
       lpeversion="1"
       nodesatellites_param="F,0,0,1,0,0,0,1 @ F,0,0,1,0,2.382947,0,1 @ F,0,0,1,0,0,0,1 @ F,0,0,1,0,2.3654434,0,1"
       radius="0"
       unit="px"
       method="auto"
       mode="F"
       chamfer_steps="1"
       flexible="false"
       use_knot_distance="true"
       apply_no_radius="true"
       apply_with_radius="true"
       only_selected="false"
       hide_knots="false" />
  </defs>
  <g
     inkscape:label="Layer 1"
     inkscape:groupmode="layer"
     id="layer1">
    <path
       id="path1"
       style="fill:#f9f9f9;stroke-width:0.52916667;stroke-dasharray:none;stroke:none;stroke-opacity:1;paint-order:normal;stroke-linejoin:round;fill-opacity:1"
       d="M 4.2322998 2.271696 C 3.5177602 2.2718121 2.8186624 2.4706523 2.2127848 2.8494385 L 0 4.2322998 C 0.0084928001 4.2350951 0.016342745 4.2372717 0.024804687 4.2400513 C 0.016322873 4.2375516 0.0085169638 4.2358598 0 4.2333333 L 2.2127848 5.6161947 C 2.8186624 5.9949809 3.5177602 6.1943378 4.2322998 6.1944539 C 4.9468394 6.1943378 5.6480042 5.9949809 6.2538818 5.6161947 L 8.4666667 4.2333333 C 8.4657721 4.2331729 8.464977 4.2329767 8.4640828 4.2328166 C 8.4649971 4.2326434 8.4657519 4.232473 8.4666667 4.2322998 L 6.2538818 2.8494385 C 5.6480042 2.4706523 4.9468394 2.2718121 4.2322998 2.271696 z M 4.2322998 2.6458333 C 4.8351927 2.6459272 5.4269296 2.8064063 5.9381388 3.1129883 L 7.8052083 4.2322998 C 7.8044483 4.2324401 7.8039126 4.2326763 7.8031413 4.2328166 C 7.8038913 4.2329462 7.8044534 4.2332035 7.8052083 4.2333333 L 5.9381388 5.3526449 C 5.4269296 5.6592268 4.8351927 5.8202227 4.2322998 5.8203166 C 3.6294071 5.8202227 3.0397371 5.6592268 2.5285278 5.3526449 L 0.66145833 4.2333333 C 0.66864453 4.2353733 0.67497191 4.236481 0.68212891 4.238501 C 0.67498921 4.236251 0.66862533 4.2345698 0.66145833 4.2322998 L 2.5285278 3.1129883 C 3.0397371 2.8064063 3.6294071 2.6459272 4.2322998 2.6458333 z " />
  </g>
</svg>
