<?xml version="1.0" encoding="UTF-8" standalone="no"?>
<!-- Created with Inkscape (http://www.inkscape.org/) -->

<svg
   width="32"
   height="32"
   viewBox="0 0 8.4666668 8.4666666"
   version="1.1"
   id="svg1"
   inkscape:version="1.3 (0e150ed6c4, 2023-07-21)"
   sodipodi:docname="logo.svg"
   xmlns:inkscape="http://www.inkscape.org/namespaces/inkscape"
   xmlns:sodipodi="http://sodipodi.sourceforge.net/DTD/sodipodi-0.dtd"
   xmlns="http://www.w3.org/2000/svg"
   xmlns:svg="http://www.w3.org/2000/svg">
  <sodipodi:namedview
     id="namedview1"
     pagecolor="#ffffff"
     bordercolor="#000000"
     borderopacity="0.25"
     inkscape:showpageshadow="2"
     inkscape:pageopacity="0.0"
     inkscape:pagecheckerboard="0"
     inkscape:deskcolor="#d1d1d1"
     inkscape:document-units="mm"
     inkscape:zoom="18.928082"
     inkscape:cx="9.2719379"
     inkscape:cy="17.302334"
     inkscape:window-width="1920"
     inkscape:window-height="1177"
     inkscape:window-x="1912"
     inkscape:window-y="-8"
     inkscape:window-maximized="1"
     inkscape:current-layer="layer1"
     showgrid="false" />
  <defs
     id="defs1">
    <inkscape:path-effect
       effect="fillet_chamfer"
       id="path-effect2"
       is_visible="true"
       lpeversion="1"
       nodesatellites_param="F,0,0,1,0,0,0,1 @ F,0,0,1,0,0,0,1 @ F,0,0,1,0,0,0,1 @ F,0,0,1,0,0,0,1 @ F,0,0,1,0,0,0,1 @ F,0,0,1,0,0,0,1 @ F,0,0,1,0,0,0,1 @ F,0,0,1,0,0,0,1"
       radius="0"
       unit="px"
       method="auto"
       mode="F"
       chamfer_steps="1"
       flexible="false"
       use_knot_distance="true"
       apply_no_radius="true"
       apply_with_radius="true"
       only_selected="false"
       hide_knots="false" />
  </defs>
  <g
     inkscape:label="Layer 1"
     inkscape:groupmode="layer"
     id="layer1">
    <path
       style="fill:#262626;fill-opacity:1;stroke-width:0.654773"
       id="rect1"
       width="8.4666662"
       height="8.4666662"
       x="0"
       y="0"
       inkscape:path-effect="#path-effect2"
       sodipodi:type="rect"
       d="m 1.0583333,0 h 6.3499996 c 0.5863167,0 1.0583333,0.47201664 1.0583333,1.0583333 v 6.3499996 c 0,0.5863167 -0.4720166,1.0583333 -1.0583333,1.0583333 H 1.0583333 C 0.47201664,8.4666662 0,7.9946496 0,7.4083329 V 1.0583333 C 0,0.47201664 0.47201664,0 1.0583333,0 Z"
       ry="1.0583333"
       rx="1.0583333" />
    <text
       xml:space="preserve"
       style="font-size:8.81944px;display:none;fill:#262626;fill-opacity:1;stroke-width:0.264583"
       x="4.277432"
       y="6.2000685"
       id="text1"><tspan
         sodipodi:role="line"
         id="tspan1"
         style="font-style:normal;font-variant:normal;font-weight:normal;font-stretch:normal;font-size:8.81944px;font-family:Estonia;-inkscape-font-specification:Estonia;text-align:center;text-anchor:middle;fill:#e6e6e6;fill-opacity:1;stroke-width:0.264583"
         x="4.277432"
         y="6.2000685">SP</tspan></text>
    <path
       style="font-size:8.81944px;font-family:Estonia;-inkscape-font-specification:Estonia;text-align:center;text-anchor:middle;fill:#e6e6e6;stroke-width:0.396875;stroke:#e6e6e6;stroke-opacity:1;stroke-dasharray:none"
       d="m 2.0461147,6.2794434 q -0.1411111,0 -0.2822221,-0.00882 Q 1.631601,6.2618046 1.5081288,6.2265268 1.2611845,6.1647907 1.1288929,6.0148602 1.0936152,5.9972214 1.049518,5.9354853 1.0318791,5.9002075 1.0142402,5.8649298 0.9877819,5.829652 0.97014302,5.7943742 0.95250414,5.750277 0.9436847,5.7149993 q -0.008819,-0.044097 -0.0264583,-0.079375 0,-0.044097 0.008819,-0.070556 0,-0.035278 0.008819,-0.070555 0.0176389,-0.070556 0.0440972,-0.1322916 0.0176389,-0.070556 0.0529166,-0.1058333 0.061736,-0.079375 0.2116666,-0.097014 l 0.052917,0.052917 q 0.035278,0.026458 0.017639,0.070556 -0.00882,0.00882 -0.00882,0.035278 0,0.026458 -0.00882,0.044097 0.017639,0.035278 0.017639,0.044097 0.017639,0 0.017639,0.026458 0,0.00882 -0.00882,0.026458 v 0.026458 q 0.00882,0.00882 0.017639,0.00882 l 0.00882,0.00882 q 0.017639,0.017639 0,0.035278 v 0.044097 q 0.00882,0.00882 0.017639,0.026458 0.00882,0.017639 0.017639,0.035278 0.017639,0.026458 0.035278,0.052917 0.017639,0.026458 0.044097,0.052917 0.026458,0.026458 0.044097,0.052917 0.017639,0.026458 0.035278,0.044097 0.035278,0.052917 0.061736,0.061736 0.1234721,0.061736 0.2557637,0.1058332 0.1322916,0.044097 0.2822221,0.061736 0.1058333,0.026458 0.2028471,0.026458 0.1234722,0 0.2381249,-0.026458 0.1146527,-0.035278 0.2293055,-0.070556 0.088194,-0.035278 0.1763888,-0.079375 0.097014,-0.052917 0.1763887,-0.1146527 0.044097,-0.035278 0.097014,-0.079375 0.052917,-0.044097 0.1146527,-0.088194 0.1322916,-0.097014 0.1675694,-0.2028472 0.017639,-0.035278 0.026458,-0.079375 0.00882,-0.044097 0.017639,-0.079375 0.017639,-0.088194 0.052917,-0.1234721 0.00882,-0.026458 0.00882,-0.079375 0,-0.097014 -0.035278,-0.2028471 Q 3.5895167,4.7801387 3.5189611,4.7095831 3.4484056,4.6390276 3.3337529,4.5684721 3.2543779,4.4890971 3.1397252,4.4449999 3.0338919,4.3920833 2.8927809,4.3568055 L 2.4165312,4.2245139 Q 2.3459756,4.2068751 2.3018784,4.1804167 2.2666007,4.145139 2.1784063,4.1186807 q -0.017639,-0.00882 -0.044097,-0.017639 -0.026458,-0.00882 -0.044097,-0.017639 -0.017639,0 -0.044097,-0.00882 Q 2.0284758,4.065764 2.0108369,4.0569446 1.8168092,3.9422919 1.7815315,3.8011808 1.7462537,3.7129864 1.7638926,3.6336115 q 0.00882,-0.035278 -0.00882,-0.088194 -0.00882,-0.017639 -0.017639,-0.044097 -0.00882,-0.026458 -0.017639,-0.044097 0,-0.052917 0.00882,-0.079375 0,-0.044097 0.017639,-0.079375 0.00882,-0.026458 0.00882,-0.061736 0,-0.035278 0.00882,-0.061736 0.035278,-0.079375 0.070556,-0.1322916 0.044097,-0.061736 0.079375,-0.1058333 L 2.0990313,2.7340286 q 0.026458,-0.00882 0.079375,-0.061736 0.044097,-0.026458 0.070556,-0.044097 0.026458,-0.017639 0.044097,-0.026458 0.079375,-0.079375 0.1058333,-0.097014 0.070556,-0.044097 0.1499305,-0.088194 0.079375,-0.044097 0.1675693,-0.1058333 0.1940277,-0.079375 0.361597,-0.1058333 0.035278,-0.00882 0.070556,-0.00882 0.035278,0 0.070556,0 h 0.044097 q 0.061736,0 0.088194,-0.00882 0.2557637,0 0.5291664,0.088194 0.2381249,0.1058333 0.3439581,0.2910415 0.026458,0.052917 0.026458,0.1411111 0,0.088194 -0.017639,0.1763888 -0.017639,0.088194 -0.088194,0.1499305 l -0.070556,0.061736 q -0.044097,0.052917 -0.097014,0.070556 -0.052917,0.026458 -0.088194,0.017639 -0.035278,0 -0.026458,-0.052917 0,-0.035278 0,-0.061736 0.00882,-0.035278 0.00882,-0.070556 0,-0.1058333 -0.026458,-0.1852082 Q 3.8011832,2.681112 3.7482666,2.6370148 3.6600722,2.5664592 3.5630583,2.5135426 3.4748639,2.460626 3.3690307,2.4253482 3.2543779,2.3724316 3.1220863,2.3724316 q -0.061736,0 -0.1234721,0.00882 -0.052917,0.00882 -0.1234722,0.026458 -0.070555,0.00882 -0.1322916,0.044097 -0.052917,0.026458 -0.097014,0.061736 -0.017639,0.00882 -0.044097,0.017639 -0.026458,0.00882 -0.052917,0.017639 -0.044097,0.00882 -0.097014,0.061736 -0.026458,0.035278 -0.061736,0.070556 -0.035278,0.035278 -0.079375,0.070555 -0.044097,0.035278 -0.088194,0.079375 -0.035278,0.035278 -0.052917,0.079375 -0.052917,0.220486 -0.052917,0.3704165 0,0.141111 0.035278,0.220486 0.1322916,0.220486 0.4321525,0.3968748 0.017639,0.00882 0.061736,0.026458 0.052917,0.00882 0.1146527,0.026458 l 0.1763888,0.052917 q 0.044097,0 0.061736,0.00882 0.017639,0 0.035278,0.00882 0.00882,0 0.097014,0.035278 l 0.1146527,0.044097 q 0.044097,0.017639 0.097014,0.026458 0.052917,0.00882 0.1058333,0.017639 0.1058333,0.026458 0.2028471,0.097014 0.035278,0.026458 0.088194,0.061736 0.061736,0.035278 0.1146528,0.079375 0.1058332,0.088194 0.1146527,0.1940276 0.00882,0.070556 0.017639,0.1322916 0.00882,0.052917 0.017639,0.1058333 0.00882,0.026458 0.00882,0.079375 0,0.061736 -0.026458,0.1322916 -0.00882,0.061736 -0.044097,0.1234721 -0.017639,0.035278 -0.035278,0.070556 -0.00882,0.026458 -0.026458,0.061736 -0.026458,0.026458 -0.052917,0.044097 -0.017639,0.026458 -0.035278,0.052917 -0.017639,0.026458 -0.026458,0.044097 -0.017639,0.044097 -0.035278,0.052917 0,0.017639 -0.035278,0.052917 -0.00882,0.00882 -0.017639,0.00882 -0.00882,0 -0.017639,0.017639 -0.017639,0 -0.044097,0.026458 -0.035278,0.035278 -0.052917,0.070555 -0.017639,0.035278 -0.052917,0.070556 -0.035278,0.017639 -0.052917,0.035278 -0.017639,0 -0.035278,0.00882 -0.017639,0.00882 -0.035278,0.017639 l -0.035278,0.035278 q -0.017639,0.035278 -0.052917,0.044097 L 3.1309058,5.9795825 2.9192392,6.1030546 q -0.097014,0.061736 -0.2116665,0.097014 -0.1146527,0.026458 -0.2381249,0.044097 -0.1058333,0.00882 -0.220486,0.017639 -0.1058333,0.017639 -0.2028471,0.017639 z m 2.5664522,-0.026458 q -0.088194,0 -0.1499304,-0.044097 -0.044097,-0.044097 -0.044097,-0.097014 0,-0.026458 0.017639,-0.079375 0.017639,-0.044097 0.00882,-0.061736 v -0.026458 l 0.017639,-0.026458 q 0.00882,-0.017639 0.026458,-0.035278 0.017639,-0.017639 0.044097,-0.052917 0.00882,-0.00882 0.026458,-0.026458 0.017639,-0.017639 0.052917,-0.044097 0.061736,-0.052917 0.061736,-0.070556 0,-0.00882 0,-0.017639 0.00882,-0.00882 0.017639,-0.026458 0.026458,-0.044097 0.044097,-0.088194 0.035278,-0.052917 0.035278,-0.088194 0.026458,-0.044097 0.00882,-0.1058333 -0.00882,-0.052917 0.017639,-0.079375 0.088194,-0.044097 0.070555,-0.061736 0.017639,-0.061736 0.00882,-0.079375 0,-0.026458 0.017639,-0.061736 0.035278,-0.035278 0.052917,-0.1675693 0.017639,-0.1322916 0.026458,-0.1411111 v -0.035278 q 0,-0.052917 0.026458,-0.061736 0.044097,-0.044097 0.044097,-0.1234722 l -0.017639,-0.026458 v -0.026458 q 0.026458,-0.026458 0.035278,-0.070556 0.00882,-0.035278 0.017639,-0.052917 0.00882,-0.026458 0.017639,-0.035278 0.017639,-0.017639 0.00882,-0.026458 -0.00882,0 -0.026458,-0.017639 l 0.026458,-0.052917 q 0,-0.026458 0.017639,-0.079375 -0.00882,-0.017639 -0.00882,-0.079375 v -0.088194 q 0.026458,-0.026458 0.035278,-0.044097 0.026458,-0.035278 0.00882,-0.061736 l -0.00882,-0.070555 q -0.00882,0 -0.00882,-0.026458 -0.00882,-0.017639 -0.00882,-0.061736 0,-0.070555 0.026458,-0.1587499 0.044097,-0.1499305 0.026458,-0.2381249 0,-0.017639 0,-0.044097 0,-0.026458 0.00882,-0.061736 0.00882,-0.044097 0.00882,-0.088194 0,-0.052917 0.00882,-0.1146527 0.00882,-0.044097 0.00882,-0.079375 0,-0.044097 0.00882,-0.079375 0.00882,-0.044097 0.00882,-0.061736 0,-0.026458 0,-0.035278 -0.017639,-0.052917 -0.017639,-0.052917 v -0.017639 q 0,-0.00882 -0.017639,-0.026458 -0.017639,0 -0.061736,-0.070556 -0.00882,-0.00882 -0.026458,-0.017639 -0.017639,-0.017639 -0.035278,-0.026458 -0.035278,-0.035278 -0.070556,-0.052917 0.017639,-0.052917 0.035278,-0.070556 0.017639,-0.017639 0.035278,-0.026458 0.017639,-0.00882 0.026458,-0.017639 0.1587499,-0.044097 0.220486,-0.097014 0.044097,-0.017639 0.1058333,-0.035278 0.061736,-0.017639 0.1322916,-0.026458 h 0.070555 q 0.035278,0 0.070556,0 0.044097,0 0.088194,0.00882 0.070556,0.00882 0.1146527,0.026458 0.044097,0.00882 0.061736,0.017639 0.035278,0 0.070556,0 0.035278,0 0.070556,-0.00882 0.044097,-0.00882 0.079375,-0.00882 0.044097,0 0.079375,-0.00882 0.044097,0 0.088194,0 0.052917,0 0.088194,-0.00882 0.035278,-0.00882 0.061736,-0.00882 0.026458,0 0.044097,0 0.2910415,0 0.4850692,0.052917 0.2293054,0.097014 0.3792359,0.299861 0.035278,0.035278 0.061736,0.097014 0.035278,0.061736 0.035278,0.1146527 0,0.035278 0,0.061736 0.00882,0.026458 0.017639,0.061736 0.00882,0.035278 0.00882,0.070555 0.00882,0.035278 0.00882,0.079375 -0.00882,0.079375 -0.026458,0.1234721 0,0.035278 -0.017639,0.088194 0,0.026458 0,0.061736 0,0.035278 -0.00882,0.079375 -0.017639,0.1058333 -0.044097,0.1322916 -0.017639,0.052917 -0.026458,0.061736 0,0.026458 -0.017639,0.044097 -0.00882,0.017639 -0.00882,0.044097 0,0.035278 -0.00882,0.052917 -0.017639,0.00882 -0.052917,0.044097 -0.026458,0.088194 -0.026458,0.1322916 l -0.141111,0.141111 q -0.035278,0.017639 -0.070555,0.044097 -0.035278,0.017639 -0.052917,0.035278 -0.052917,0.052917 -0.070556,0.061736 -0.017639,0.00882 -0.044097,0.017639 -0.017639,0.00882 -0.035278,0.017639 -0.052917,0.035278 -0.079375,0.044097 -0.00882,0.035278 -0.052917,0.061736 -0.035278,0.017639 -0.079375,0.035278 -0.035278,0.017639 -0.079375,0.035278 -0.044097,0.017639 -0.097014,0.035278 -0.044097,0.00882 -0.088194,0.026458 -0.070556,0.017639 -0.1234721,0.026458 -0.052917,0.00882 -0.097014,0.026458 -0.044097,0 -0.088194,0 -0.044097,0 -0.088194,-0.00882 H 5.776733 l -0.026458,-0.026458 -0.035278,-0.026458 q -0.052917,-0.017639 -0.070556,-0.017639 -0.00882,0 -0.044097,-0.00882 -0.026458,-0.017639 -0.035278,-0.035278 0,-0.00882 0.052917,-0.017639 0.017639,0 0.035278,0 0.017639,-0.00882 0.035278,-0.00882 0.052917,0 0.1322916,0.026458 0.035278,0.00882 0.061736,0.017639 0.026458,0 0.052917,0 0.052917,0 0.1058333,-0.017639 0.044097,-0.00882 0.079375,-0.017639 0.044097,-0.017639 0.079375,-0.026458 0.044097,-0.017639 0.088194,-0.026458 0.044097,-0.017639 0.1146527,-0.026458 l 0.1499305,-0.079375 q 0.1234722,-0.070556 0.1587499,-0.1322916 0.097014,-0.088194 0.15875,-0.1675694 0.035278,-0.044097 0.052917,-0.1234722 0.026458,-0.088194 0.052917,-0.1587499 0.017639,-0.044097 0.035278,-0.088194 0.017639,-0.052917 0.035278,-0.1146527 0.00882,-0.017639 0.00882,-0.035278 0,-0.026458 0.00882,-0.044097 0.017639,-0.044097 0,-0.1058332 L 7.0467324,3.263195 q 0,-0.017639 0,-0.044097 0,-0.026458 0.00882,-0.044097 0,-0.026458 0,-0.061736 0,-0.044097 0.00882,-0.070556 0,-0.035278 -0.00882,-0.061736 0,-0.026458 0,-0.052917 -0.00882,-0.026458 -0.017639,-0.052917 0,-0.026458 -0.00882,-0.052917 -0.00882,-0.079375 -0.079375,-0.1763888 -0.035278,-0.044097 -0.088194,-0.079375 -0.044097,-0.035278 -0.097014,-0.070556 -0.088194,-0.061736 -0.2293055,-0.088194 -0.061736,-0.017639 -0.141111,-0.017639 -0.070556,0 -0.1146527,0.00882 h -0.035278 q -0.070556,0 -0.1499305,0.035278 -0.061736,0.035278 -0.1058332,0.052917 -0.044097,0.00882 -0.070556,0.017639 -0.061736,0.079375 -0.141111,0.1234721 -0.088194,0.052917 -0.1234722,0.2116666 -0.00882,0.035278 -0.026458,0.079375 -0.00882,0.035278 -0.052917,0.070556 -0.026458,0.070556 -0.044097,0.1852082 0,0.035278 0.00882,0.044097 0,0.017639 -0.017639,0.035278 -0.00882,0.052917 -0.044097,0.070556 0.017639,0.017639 0,0.035278 -0.00882,0 -0.026458,0.035278 0,0.026458 0.00882,0.035278 0.00882,0.00882 0.00882,0.035278 0,0 0,0.017639 0,0.00882 -0.017639,0.035278 0,0.026458 -0.00882,0.052917 -0.00882,0.026458 -0.017639,0.052917 -0.00882,0.035278 -0.026458,0.061736 -0.00882,0.026458 -0.017639,0.052917 l -0.017639,0.061736 q -0.017639,0 -0.026458,0.088194 -0.00882,0.026458 -0.00882,0.052917 0,0.026458 -0.00882,0.061736 0,0.035278 0,0.070556 0,0.026458 -0.00882,0.061736 -0.00882,0.035278 -0.00882,0.052917 0,0.00882 0,0.017639 0.00882,0.088194 0,0.1499304 -0.00882,0.035278 -0.017639,0.079375 -0.00882,0.044097 -0.017639,0.088194 -0.00882,0.035278 -0.00882,0.079375 0,0.044097 -0.00882,0.061736 0,0.035278 -0.00882,0.044097 h -0.00882 q 0,0 0,0.00882 0,0 -0.00882,0.00882 -0.00882,0.00882 -0.00882,0.035278 0,0.017639 -0.00882,0.052917 -0.00882,0.035278 -0.00882,0.052917 0,0.017639 0,0.026458 0,0.00882 -0.00882,0.017639 0.00882,0.00882 0,0.026458 0,0.017639 0,0.035278 -0.026458,0.052917 -0.00882,0.070555 0,0.026458 -0.00882,0.052917 0,0.026458 -0.00882,0.052917 -0.00882,0.026458 -0.017639,0.044097 -0.00882,0.017639 -0.017639,0.035278 -0.00882,0.00882 -0.00882,0.017639 0,0.00882 0,0.00882 0.017639,0.017639 0.017639,0.026458 0,0.035278 -0.00882,0.044097 -0.00882,0.00882 -0.00882,0.035278 -0.00882,0.026458 -0.00882,0.044097 0,0.00882 0,0.00882 0.017639,0 0.017639,0.017639 l -0.017639,0.1146527 q -0.00882,0.026458 -0.00882,0.070556 0,0.070556 0.035278,0.1058333 l 0.044097,0.1234722 q 0.00882,0.017639 0.00882,0.035278 0.00882,0.017639 0.00882,0.035278 0,0.026458 -0.00882,0.052917 -0.00882,0.026458 -0.026458,0.052917 -0.026458,0.044097 -0.1146527,0.1058333 -0.044097,0.026458 -0.097014,0.052917 -0.044097,0.017639 -0.1146528,0.035278 -0.061736,0.00882 -0.1234721,0.017639 -0.052917,0.00882 -0.097014,0.017639 z"
       id="text2"
       aria-label="SP" />
  </g>
</svg>
